# AST/ASF file generated using VICON BodyLanguage
# -----------------------------------------------
:version 1.10
:name VICON
:units
  mass 1.0
  length 0.45
  angle deg
:documentation
   .ast/.asf automatically generated from VICON data using
   VICON BodyBuilder and BodyLanguage model FoxedUp or BRILLIANT.MOD
:root
   order TX TY TZ RX RY RZ
   axis XYZ
   position 0 0 0  
   orientation 0 0 0 
:bonedata
  begin
     id 1 
     name lhipjoint
     direction 0.643824 -0.71708 0.266994 
     length 2.52133 
     axis 0 0 0  XYZ
  end
  begin
     id 2 
     name lfemur
     direction 0.34202 -0.939693 0  
     length 7.51824  
     axis 0 0 20  XYZ
    dof rx ry rz
    limits (-160.0 20.0)
           (-70.0 70.0)
           (-60.0 70.0)
  end
  begin
     id 3 
     name ltibia
     direction 0.34202 -0.939693 0   
     length 7.3685   
     axis 0 0 20   XYZ
    dof rx
    limits (-10.0 170.0)
  end
  begin
     id 4 
     name lfoot
     direction 0.105419 -0.289636 0.951314   
     length 2.20972   
     axis -90 7.62852e-016 20   XYZ
    dof rx rz
    limits (-45.0 90.0)
           (-70.0 20.0)
  end
  begin
     id 5 
     name ltoes
     direction 1.53549e-011 -4.21833e-011 1   
     length 1.10139   
     axis -90 7.62852e-016 20   XYZ
    dof rx
    limits (-90.0 20.0)
  end
  begin
     id 6 
     name rhipjoint
     direction -0.608823 -0.743445 0.276811   
     length 2.43192  
     axis 0 0 0  XYZ 
  end
  begin
     id 7 
     name rfemur
     direction -0.34202 -0.939693 0   
     length 7.69715   
     axis 0 0 -20   XYZ
    dof rx ry rz
    limits (-160.0 20.0)
           (-70.0 70.0)
           (-70.0 60.0)
  end
  begin
     id 8 
     name rtibia
     direction -0.34202 -0.939693 0   
     length 7.44924   
     axis 0 0 -20   XYZ
    dof rx
    limits (-10.0 170.0)
 end
 begin
     id 9 
     name rfoot
     direction -0.103614 -0.284677 0.953007   
     length 2.22623  
     axis -90 -7.62852e-016 -20   XYZ
    dof rx rz
    limits (-45.0 90.0)
           (-20.0 70.0)
  end
  begin
     id 10 
     name rtoes
     direction -1.53537e-011 -4.22026e-011 1   
     length 1.11   
     axis -90 -7.62852e-016 -20   XYZ
    dof rx
    limits (-90.0 20.0)
  end
  begin
     id 11 
     name lowerback
     direction -0.0101212 0.99662 -0.0815298   
     length 2.08277   
     axis 0 0 0   XYZ
    dof rx ry rz
    limits (-20.0 45.0)
           (-30.0 30.0)
           (-30.0 30.0)
  end
  begin
     id 12 
     name upperback
     direction 0.024314 0.999591 -0.0150645   
     length 2.08524   
     axis 0 0 0   XYZ
    dof rx ry rz
    limits (-20.0 45.0)
           (-30.0 30.0)
           (-30.0 30.0)
  end
  begin
     id 13 
     name thorax
     direction 0.0285959 0.999323 0.0231357   
     length 2.09645   
     axis 0 0 0   XYZ
    dof rx ry rz
    limits (-20.0 45.0)
           (-30.0 30.0)
           (-30.0 30.0)
  end
  begin
     id 14 
     name lowerneck
     direction -0.065512 0.979301 0.191515   
     length 1.63798   
     axis 0 0 0   XYZ
    dof rx ry rz
    limits (-20.0 45.0)
           (-30.0 30.0)
           (-30.0 30.0)
  end
  begin
     id 15 
     name upperneck
     direction 0.0498479 0.98191 -0.182667   
     length 1.68731   
     axis 0 0 0   XYZ
    dof rx ry rz
    limits (-20.0 45.0)
           (-30.0 30.0)
           (-30.0 30.0)
  end
  begin
     id 16
     name head
     direction 0.0230358 0.996257 -0.0833175  
     length 1.69785  
     axis 0 0 0   XYZ
    dof rx ry rz
    limits (-20.0 45.0)
           (-30.0 30.0)
           (-30.0 30.0)
  end
  begin
     id 17 
     name lclavicle
     direction 0.967963 0.201165 -0.150269  
     length 3.63976  
     axis 0 0 0   XYZ
    dof ry rz
    limits (-20.0 10.0)
           (0.0 20.0)
  end
  begin
     id 18 
     name lhumerus
     direction 1 -4.48954e-011 -2.92837e-028   
     length 5.32462   
     axis 180 -30 -90   XYZ
    dof rx ry rz
    limits (-60.0 90.0)
           (-90.0 90.0)
           (-90.0 90.0)
  end
  begin
     id 19
     name lradius
     direction 1 -4.48958e-011 -6.39511e-027   
     length 3.48402   
     axis 180 -30 -90   XYZ
    dof rx
    limits (-10.0 170.0)
  end
  begin
     id 20
     name lwrist
     direction 1 -4.48975e-011 -1.1413e-026   
     length 1.74201   
     axis 6.88575e-015 90 90   XYZ
    dof ry
    limits (-180.0 0.0)
 end
  begin
     id 21 
     name lhand
     direction 1 -4.48899e-011 -2.28192e-026   
     length 0.572476   
     axis 1.45643e-014 90 90   XYZ
    dof rx rz
    limits (-90.0 90.0)
           (-45.0 45.0)
  end
  begin
     id 22 
     name lfingers
     direction 1 -4.49155e-011 -4.5684e-026   
     length 0.461545   
     axis 2.91283e-014 90 90   XYZ
    dof rx
    limits (0.0 90.0)
  end
  begin
     id 23
     name lthumb
     direction 0.707107 -6.34943e-011 0.707107   
     length 0.662688   
     axis -90 45 -2.25915e-014   XYZ
    dof rx rz
    limits (-45.0 45.0)
           (-45.0 45.0)
  end
  begin
     id 24 
     name rclavicle
     direction -0.964103 0.264019 -0.0282629   
     length 3.54491  
     axis 0 0 0   XYZ 
    dof ry rz
    limits (-10.0 20.0)
           (-20.0 0.0)
  end
  begin
     id 25 
     name rhumerus
     direction -1 -4.48964e-011 -2.45032e-027  
     length 5.33589   
     axis 180 30 90   XYZ
    dof rx ry rz
    limits (-90.0 60.0)
           (-90.0 90.0)
           (-90.0 90.0)
  end
  begin
     id 26 
     name rradius
     direction -1 -4.48987e-011 -1.55093e-027   
     length 3.64134   
     axis 180 30 90   XYZ
    dof rx
    limits (-10.0 170.0)
  end
  begin
     id 27 
     name rwrist
     direction -1 -4.4897e-011 -1.14128e-026   
     length 1.82067   
     axis 6.88575e-015 -90 -90   XYZ
    dof ry
    limits (-180.0 0.0)
  end
  begin
     id 28
     name rhand
     direction -1 -4.49021e-011 -2.28301e-026   
     length 0.734811   
     axis 1.45643e-014 -90 -90   XYZ
    dof rx rz
    limits (-90.0 90.0)
           (-45.0 45.0)
  end
  begin
     id 29
     name rfingers
     direction -1 -4.48862e-011 -4.56319e-026   
     length 0.592424   
     axis 2.91283e-014 -90 -90   XYZ
    dof rx
    limits (0.0 90.0)
  end
  begin
     id 30
     name rthumb
     direction -0.707107 -6.34978e-011 0.707107   
     length 0.850605   
     axis -90 -45 2.25915e-014   XYZ
    dof rx rz
    limits (-45.0 45.0)
           (-45.0 45.0)
  end
:hierarchy
  begin
    root lhipjoint rhipjoint lowerback
    lhipjoint lfemur
    lfemur ltibia
    ltibia lfoot
    lfoot ltoes
    rhipjoint rfemur
    rfemur rtibia
    rtibia rfoot
    rfoot rtoes
    lowerback upperback
    upperback thorax
    thorax lowerneck lclavicle rclavicle
    lowerneck upperneck
    upperneck head
    lclavicle lhumerus
    lhumerus lradius
    lradius lwrist
    lwrist lhand lthumb
    lhand lfingers
    rclavicle rhumerus
    rhumerus rradius
    rradius rwrist
    rwrist rhand rthumb
    rhand rfingers
  end

#!OML:ASF F:\VICON\USERDATA\INSTALL\rory3\rory3.ASF
:FULLY-SPECIFIED
:DEGREES
51
root 1.17174 17.5735 12.3893 -175.532 1.83504 177.242
lowerback 1.3467 -0.00158263 -6.69705
upperback 0.139903 -0.0893638 0.623827
thorax -0.600265 -0.0242475 4.40546
lowerneck -20.186 -2.39055 -7.18496
upperneck 36.6869 1.33482 2.37352
head 16.6318 0.865456 2.87805
rclavicle 1.83876e-015 6.36111e-015
rhumerus -35.0938 -8.05093 -79.9451
rradius 33.0916
rwrist 21.5097
rhand -17.7652 4.24488
rfingers 7.12502
rthumb 8.49692 -25.5642
lclavicle 1.83876e-015 6.36111e-015
lhumerus -30.4169 6.95662 85.0791
lradius 28.4286
lwrist -9.8479
lhand -13.3372 25.4353
lfingers 7.12502
lthumb 12.7681 55.0249
rfemur -23.0508 4.32089 14.2701
rtibia 48.1968
rfoot -19.2643 -4.77369
rtoes -2.30611
lfemur -9.56008 3.51072 -28.2532
ltibia 23.4125
lfoot -15.8335 -3.50888
ltoes 0.0443519
52
root 1.16979 17.5721 12.3858 -175.566 1.79032 177.153
lowerback 1.44931 -0.042688 -6.78362
upperback 0.143 -0.152581 0.629466
thorax -0.646482 -0.0539224 4.46162
lowerneck -20.1065 -2.35529 -7.21807
upperneck 36.6302 1.40283 2.34047
head 16.579 0.88474 2.87809
rclavicle 1.10574e-015 -7.55382e-015
rhumerus -35.1334 -7.9532 -79.9592
rradius 33.1715
rwrist 21.4687
rhand -17.8855 4.22116
rfingers 7.12502
rthumb 8.38082 -25.5926
lclavicle 1.10574e-015 -7.55382e-015
lhumerus -30.5288 6.91551 85.0849
lradius 28.4041
lwrist -9.83423
lhand -13.2993 25.3474
lfingers 7.12502
lthumb 12.8047 54.9347
rfemur -23.467 4.14181 14.1995
rtibia 48.9202
rfoot -19.1153 -4.96379
rtoes -1.68697
lfemur -9.44944 3.60093 -28.3368
ltibia 23.2779
lfoot -15.7916 -3.71079
ltoes 0.246809
53
root 1.16846 17.5797 12.382 -175.57 1.74996 177.102
lowerback 1.53515 -0.0723573 -6.82698
upperback 0.16272 -0.198135 0.628663
thorax -0.66833 -0.0761231 4.48641
lowerneck -20.1267 -2.34152 -7.24825
upperneck 36.6146 1.43625 2.32794
head 16.574 0.890169 2.88321
rclavicle 2.28602e-015 -5.1684e-015
rhumerus -35.1179 -7.92987 -79.9658
rradius 33.2509
rwrist 21.4448
rhand -17.9293 4.09496
rfingers 7.12502
rthumb 8.33858 -25.7205
lclavicle 2.28602e-015 -5.1684e-015
lhumerus -30.5482 6.91898 85.0703
lradius 28.351
lwrist -9.81948
lhand -13.2485 25.2089
lfingers 7.12502
lthumb 12.8536 54.7931
rfemur -23.913 3.87715 14.1855
rtibia 49.5828
rfoot -18.8933 -5.37194
rtoes -3.0171
lfemur -9.37471 3.69168 -28.3799
ltibia 23.1543
lfoot -15.7845 -3.87477
ltoes 0.262336
54
root 1.16842 17.5822 12.3783 -175.585 1.68083 177.009
lowerback 1.61262 -0.0822279 -6.86131
upperback 0.208485 -0.214919 0.574068
thorax -0.662352 -0.0851971 4.44951
lowerneck -20.2123 -2.37242 -7.31168
upperneck 36.6055 1.37124 2.41577
head 16.5931 0.861789 2.9204
rclavicle -3.49116e-015 -6.95746e-015
rhumerus -35.0744 -8.00667 -79.9967
rradius 33.3181
rwrist 21.3363
rhand -17.8964 3.99606
rfingers 7.12502
rthumb 8.37027 -25.8181
lclavicle -3.49116e-015 -6.95746e-015
lhumerus -30.5621 6.79611 85.0748
lradius 28.3912
lwrist -9.68209
lhand -13.1381 25.3912
lfingers 7.12502
lthumb 12.9601 54.9687
rfemur -24.3182 3.67347 14.1395
rtibia 50.1837
rfoot -18.9883 -5.68433
rtoes -3.95638
lfemur -9.27742 3.70824 -28.4592
ltibia 23.0179
lfoot -15.7641 -3.99733
ltoes 0.169388
55
root 1.16814 17.582 12.3724 -175.571 1.58964 176.933
lowerback 1.63633 -0.120034 -6.9049
upperback 0.239832 -0.266097 0.564406
thorax -0.636495 -0.112114 4.46513
lowerneck -20.2247 -2.35121 -7.27631
upperneck 36.5156 1.39782 2.33294
head 16.5488 0.860636 2.87675
rclavicle -3.67752e-015 5.96354e-016
rhumerus -35.0264 -7.98445 -79.9791
rradius 33.3158
rwrist 21.3336
rhand -17.9284 4.23752
rfingers 7.12502
rthumb 8.33946 -25.5779
lclavicle -3.67752e-015 5.96354e-016
lhumerus -30.6233 6.75414 85.0981
lradius 28.4277
lwrist -9.67234
lhand -13.1939 25.4924
lfingers 7.12502
lthumb 12.9062 55.0733
rfemur -24.7521 3.48379 14.1087
rtibia 50.7056
rfoot -19.1518 -5.8466
rtoes -3.22567
lfemur -9.21009 3.70226 -28.5296
ltibia 22.9014
lfoot -15.7618 -4.09461
ltoes 0.247487
56
root 1.16752 17.5814 12.3652 -175.516 1.61525 176.813
lowerback 1.71792 -0.115657 -7.03558
upperback 0.16948 -0.271652 0.5734
thorax -0.753783 -0.108525 4.54897
lowerneck -20.1607 -2.32181 -7.17423
upperneck 36.5195 1.49088 2.13382
head 16.5331 0.888847 2.78889
rclavicle -2.06239e-015 -5.96354e-016
rhumerus -35.114 -7.96132 -79.8877
rradius 33.3384
rwrist 21.3123
rhand -17.8144 4.38944
rfingers 7.12502
rthumb 8.44948 -25.4215
lclavicle -2.06239e-015 -5.96354e-016
lhumerus -30.8358 6.62956 85.2019
lradius 28.4083
lwrist -9.86229
lhand -13.4742 25.4207
lfingers 7.12502
lthumb 12.6361 55.0185
rfemur -25.2737 3.26557 14.0153
rtibia 51.1514
rfoot -19.1185 -5.95565
rtoes -2.90881
lfemur -9.21399 3.80514 -28.6653
ltibia 22.8274
lfoot -15.7215 -4.21411
ltoes 0.269755
57
root 1.16479 17.5793 12.3568 -175.51 1.709 176.802
lowerback 1.87228 -0.08825 -7.02995
upperback 0.0958477 -0.2504 0.596182
thorax -0.919497 -0.0902549 4.57
lowerneck -20.1607 -2.32653 -7.14662
upperneck 36.6481 1.5369 2.07253
head 16.5989 0.909394 2.77407
rclavicle 5.06901e-015 -7.35503e-015
rhumerus -35.2829 -7.82307 -79.8532
rradius 33.4975
rwrist 21.0834
rhand -17.6083 4.41204
rfingers 7.12502
rthumb 8.64834 -25.3908
lclavicle 5.06901e-015 -7.35503e-015
lhumerus -31.0178 6.51356 85.2865
lradius 28.3722
lwrist -10.0066
lhand -13.3606 25.7879
lfingers 7.12502
lthumb 12.7456 55.3789
rfemur -25.7093 3.06494 14.0367
rtibia 51.4861
rfoot -19.1352 -5.85085
rtoes -2.49458
lfemur -9.17097 3.94862 -28.704
ltibia 22.7789
lfoot -15.6845 -4.25435
ltoes 0.0490069
58
root 1.1614 17.5806 12.3459 -175.508 1.62052 176.875
lowerback 1.94364 -0.141997 -6.89789
upperback 0.123658 -0.324011 0.630212
thorax -0.921657 -0.128482 4.53305
lowerneck -20.3037 -2.30101 -7.09771
upperneck 36.707 1.59091 2.01967
head 16.662 0.926344 2.75686
rclavicle -1.54058e-015 3.97569e-016
rhumerus -35.2875 -7.64692 -79.8763
rradius 33.632
rwrist 20.8978
rhand -17.4342 4.50044
rfingers 7.12502
rthumb 8.81639 -25.2954
lclavicle -1.54058e-015 3.97569e-016
lhumerus -30.9657 6.49762 85.3201
lradius 28.2785
lwrist -10.0315
lhand -13.0203 26.2981
lfingers 7.12502
lthumb 13.0736 55.8683
rfemur -26.0661 2.75953 14.1719
rtibia 51.7143
rfoot -19.2356 -5.81417
rtoes -2.33071
lfemur -9.09113 3.90494 -28.635
ltibia 22.6958
lfoot -15.6414 -4.24446
ltoes -0.0596773
59
root 1.16108 17.5869 12.3344 -175.464 1.36536 177.068
lowerback 1.94475 -0.243418 -6.63784
upperback 0.150276 -0.453602 0.697225
thorax -0.87942 -0.197043 4.45912
lowerneck -20.3316 -2.29943 -7.06476
upperneck 36.6766 1.61701 1.9063
head 16.6539 0.92186 2.70387
rclavicle 1.88845e-015 -1.21259e-014
rhumerus -35.2243 -7.58712 -79.8769
rradius 33.6523
rwrist 20.8655
rhand -17.5203 4.48196
rfingers 7.12502
rthumb 8.73327 -25.3174
lclavicle 1.88845e-015 -1.21259e-014
lhumerus -30.9538 6.51488 85.3276
lradius 28.1532
lwrist -10.1241
lhand -12.9765 26.4891
lfingers 7.12502
lthumb 13.1158 56.0566
rfemur -26.4254 2.42834 14.4796
rtibia 51.8281
rfoot -19.2792 -6.15158
rtoes -2.60552
lfemur -9.04252 3.79172 -28.3958
ltibia 22.6028
lfoot -15.6321 -4.36049
ltoes -0.0462324
60
root 1.16272 17.5919 12.3215 -175.429 1.21343 177.1
lowerback 1.93592 -0.313542 -6.57427
upperback 0.168802 -0.544531 0.722203
thorax -0.844154 -0.244538 4.45124
lowerneck -20.309 -2.30116 -7.08661
upperneck 36.6439 1.62702 1.87397
head 16.6316 0.916982 2.69292
rclavicle -7.45443e-017 8.15017e-015
rhumerus -35.1587 -7.58057 -79.8631
rradius 33.6595
rwrist 20.8493
rhand -17.5618 4.40987
rfingers 7.12502
rthumb 8.69324 -25.3911
lclavicle -7.45443e-017 8.15017e-015
lhumerus -31.0121 6.68396 85.2645
lradius 28.0172
lwrist -10.3829
lhand -12.9501 26.4527
lfingers 7.12502
lthumb 13.1413 56.0186
rfemur -26.8078 2.17467 14.5968
rtibia 51.8551
rfoot -19.1844 -6.43294
rtoes -2.45982
lfemur -9.00273 3.84117 -28.3441
ltibia 22.5199
lfoot -15.6561 -4.5118
ltoes -0.426785
61
root 1.1636 17.5914 12.3058 -175.445 1.21692 177.051
lowerback 1.93411 -0.310851 -6.6214
upperback 0.203694 -0.540238 0.736378
thorax -0.807011 -0.244261 4.49228
lowerneck -20.2368 -2.32951 -7.14354
upperneck 36.5877 1.5972 1.86113
head 16.5875 0.895028 2.68743
rclavicle 2.21148e-015 1.33186e-014
rhumerus -35.178 -7.55061 -79.8107
rradius 33.7371
rwrist 20.7273
rhand -17.5688 4.4066
rfingers 7.12502
rthumb 8.68649 -25.3947
lclavicle 2.21148e-015 1.33186e-014
lhumerus -31.069 6.76691 85.2534
lradius 27.903
lwrist -10.5898
lhand -12.9185 26.1683
lfingers 7.12502
lthumb 13.1718 55.7323
rfemur -27.122 1.96858 14.62
rtibia 51.7889
rfoot -19.2522 -6.47121
rtoes -2.48511
lfemur -8.88428 3.85935 -28.4
ltibia 22.4228
lfoot -15.6533 -4.52197
ltoes -0.584118
62
root 1.16462 17.5893 12.2885 -175.458 1.2257 177.093
lowerback 1.9743 -0.323601 -6.591
upperback 0.194388 -0.560067 0.783832
thorax -0.836535 -0.253268 4.5254
lowerneck -20.1553 -2.32628 -7.1638
upperneck 36.5883 1.6319 1.81707
head 16.5672 0.90392 2.6778
rclavicle 6.70898e-016 -3.77691e-015
rhumerus -35.3193 -7.48726 -79.7604
rradius 33.8485
rwrist 20.6386
rhand -17.6064 4.54532
rfingers 7.12502
rthumb 8.6502 -25.2575
lclavicle 6.70898e-016 -3.77691e-015
lhumerus -31.1526 6.97134 85.2133
lradius 27.7476
lwrist -10.7617
lhand -12.8728 26.0132
lfingers 7.12502
lthumb 13.2158 55.5743
rfemur -27.3881 1.83599 14.7589
rtibia 51.6274
rfoot -19.5265 -6.54586
rtoes -2.26219
lfemur -8.74934 3.78437 -28.3567
ltibia 22.3038
lfoot -15.6306 -4.40835
ltoes -0.677177
63
root 1.16481 17.5924 12.2722 -175.439 1.18268 177.13
lowerback 2.01582 -0.34598 -6.56118
upperback 0.209028 -0.591693 0.836037
thorax -0.840455 -0.269553 4.56399
lowerneck -20.2292 -2.32807 -7.24314
upperneck 36.5886 1.63336 1.87803
head 16.5843 0.898066 2.71918
rclavicle 5.81445e-015 5.96354e-016
rhumerus -35.333 -7.45106 -79.6966
rradius 33.934
rwrist 20.6151
rhand -17.6765 4.48557
rfingers 7.12502
rthumb 8.58251 -25.32
lclavicle 5.81445e-015 5.96354e-016
lhumerus -31.1613 7.18176 85.1969
lradius 27.617
lwrist -10.8997
lhand -12.8231 25.9331
lfingers 7.12502
lthumb 13.2637 55.4911
rfemur -27.7122 1.67654 14.8743
rtibia 51.3825
rfoot -19.561 -6.74993
rtoes -2.06207
lfemur -8.66559 3.65693 -28.3142
ltibia 22.2248
lfoot -15.6327 -4.32547
ltoes -0.560604
64
root 1.16769 17.5962 12.259 -175.398 1.14567 177.135
lowerback 2.05649 -0.340261 -6.57585
upperback 0.236722 -0.585955 0.83721
thorax -0.835203 -0.267338 4.57359
lowerneck -20.2183 -2.33354 -7.21444
upperneck 36.454 1.55046 1.92865
head 16.5148 0.868723 2.71192
rclavicle 8.32411e-015 8.34896e-015
rhumerus -35.2398 -7.65532 -79.6538
rradius 33.948
rwrist 20.5983
rhand -17.6114 4.1411
rfingers 7.12502
rthumb 8.64537 -25.6619
lclavicle 8.32411e-015 8.34896e-015
lhumerus -31.0671 7.24764 85.1728
lradius 27.3655
lwrist -11.0382
lhand -13.0999 25.6389
lfingers 7.12502
lthumb 12.9969 55.214
rfemur -28.0854 1.54131 14.929
rtibia 51.0722
rfoot -19.3944 -6.82243
rtoes -1.27455
lfemur -8.64654 3.68078 -28.2909
ltibia 22.2023
lfoot -15.671 -4.39012
ltoes -0.559889
65
root 1.17059 17.5923 12.2433 -175.293 1.23055 177.055
lowerback 2.03103 -0.307631 -6.66924
upperback 0.204206 -0.54388 0.796025
thorax -0.859447 -0.244216 4.58239
lowerneck -20.14 -2.33229 -7.0927
upperneck 36.3847 1.48494 1.9234
head 16.4628 0.858027 2.67091
rclavicle -6.13748e-015 3.97569e-016
rhumerus -35.2483 -7.80104 -79.6232
rradius 33.981
rwrist 20.5428
rhand -17.5594 4.04375
rfingers 7.12502
rthumb 8.69553 -25.7571
lclavicle -6.13748e-015 3.97569e-016
lhumerus -31.0955 7.37371 85.0751
lradius 27.1271
lwrist -11.2967
lhand -13.242 25.4493
lfingers 7.12502
lthumb 12.8599 55.0332
rfemur -28.5035 1.43943 14.884
rtibia 50.7183
rfoot -19.205 -6.71362
rtoes 0.048622
lfemur -8.68561 3.74171 -28.3848
ltibia 22.1495
lfoot -15.6958 -4.3885
ltoes -0.760899
